<svg preserveAspectRatio="none" width="100%" height="100%" overflow="visible" style="display: block;" viewBox="0 0 13.3333 18.375" fill="none" xmlns="http://www.w3.org/2000/svg">
<path id="Vector" d="M11.6667 6.125H10.8333V4.375C10.8333 1.96 8.96667 0 6.66667 0C4.36667 0 2.5 1.96 2.5 4.375H4.16667C4.16667 2.9225 5.28333 1.75 6.66667 1.75C8.05 1.75 9.16667 2.9225 9.16667 4.375V6.125H1.66667C0.75 6.125 0 6.9125 0 7.875V16.625C0 17.5875 0.75 18.375 1.66667 18.375H11.6667C12.5833 18.375 13.3333 17.5875 13.3333 16.625V7.875C13.3333 6.9125 12.5833 6.125 11.6667 6.125ZM11.6667 16.625H1.66667V7.875H11.6667V16.625ZM6.66667 14C7.58333 14 8.33333 13.2125 8.33333 12.25C8.33333 11.2875 7.58333 10.5 6.66667 10.5C5.75 10.5 5 11.2875 5 12.25C5 13.2125 5.75 14 6.66667 14Z" fill="var(--fill-0, black)" fill-opacity="0.56"/>
</svg>
