<svg preserveAspectRatio="none" width="100%" height="100%" overflow="visible" style="display: block;" viewBox="0 0 16.6667 17.5" fill="none" xmlns="http://www.w3.org/2000/svg">
<path id="Vector" d="M8.33333 0C3.73333 0 0 3.92 0 8.75C0 13.58 3.73333 17.5 8.33333 17.5C12.9333 17.5 16.6667 13.58 16.6667 8.75C16.6667 3.92 12.9333 0 8.33333 0ZM4.225 14.245C4.58333 13.4575 6.76667 12.6875 8.33333 12.6875C9.9 12.6875 12.0917 13.4575 12.4417 14.245C11.3083 15.19 9.88333 15.75 8.33333 15.75C6.78333 15.75 5.35833 15.19 4.225 14.245ZM13.6333 12.9762C12.4417 11.4537 9.55 10.9375 8.33333 10.9375C7.11667 10.9375 4.225 11.4537 3.03333 12.9762C2.18333 11.8037 1.66667 10.3425 1.66667 8.75C1.66667 4.89125 4.65833 1.75 8.33333 1.75C12.0083 1.75 15 4.89125 15 8.75C15 10.3425 14.4833 11.8037 13.6333 12.9762V12.9762ZM8.33333 3.5C6.71667 3.5 5.41667 4.865 5.41667 6.5625C5.41667 8.26 6.71667 9.625 8.33333 9.625C9.95 9.625 11.25 8.26 11.25 6.5625C11.25 4.865 9.95 3.5 8.33333 3.5ZM8.33333 7.875C7.64167 7.875 7.08333 7.28875 7.08333 6.5625C7.08333 5.83625 7.64167 5.25 8.33333 5.25C9.025 5.25 9.58333 5.83625 9.58333 6.5625C9.58333 7.28875 9.025 7.875 8.33333 7.875Z" fill="var(--fill-0, black)" fill-opacity="0.56"/>
</svg>
