<svg preserveAspectRatio="none" width="100%" height="100%" overflow="visible" style="display: block;" viewBox="0 0 20 21.4785" fill="none" xmlns="http://www.w3.org/2000/svg">
<g id="Group">
<path id="Vector" d="M18 4.2957H14V2.14785C14 0.966532 13.1 0 12 0H8C6.9 0 6 0.966532 6 2.14785V4.2957H2C0.9 4.2957 0 5.26223 0 6.44355V19.3306C0 20.512 0.9 21.4785 2 21.4785H18C19.1 21.4785 20 20.512 20 19.3306V6.44355C20 5.26223 19.1 4.2957 18 4.2957ZM8 2.14785H12V4.2957H8V2.14785ZM18 19.3306H2V6.44355H18V19.3306Z" fill="var(--fill-0, #902B29)"/>
<path id="Vector_2" d="M11 8.5914H9V11.8132H6V13.961H9V17.1828H11V13.961H14V11.8132H11V8.5914Z" fill="var(--fill-0, black)"/>
</g>
</svg>
