<svg preserveAspectRatio="none" width="100%" height="100%" overflow="visible" style="display: block;" viewBox="0 0 140.105 21.427" fill="none" xmlns="http://www.w3.org/2000/svg">
<g id="Group 1">
<path id="Vector" d="M118.491 21.0822C117.51 21.0822 116.71 20.7821 116.09 20.1819C115.49 19.5617 115.19 18.7415 115.19 17.7211V9.31836H111.468V6.19733H115.19V1.57581H118.971V6.19733H123.052V9.31836H118.971V17.0609C118.971 17.6611 119.251 17.9612 119.811 17.9612H122.692V21.0822H118.491Z" fill="var(--fill-0, #902B29)"/>
<path id="Vector_2" d="M100.139 21.2473C98.9782 21.2473 97.9579 20.9872 97.0776 20.467C96.2173 19.9268 95.5471 19.1866 95.067 18.2463C94.5868 17.306 94.3467 16.2256 94.3467 15.0052V6.1223H98.128V14.7051C98.128 15.8255 98.3981 16.6658 98.9382 17.226C99.4984 17.7861 100.289 18.0662 101.309 18.0662C102.469 18.0662 103.37 17.6861 104.01 16.9259C104.65 16.1456 104.97 15.0652 104.97 13.6848V6.1223H108.751V21.0072H105.03V19.0566H104.49C104.25 19.5567 103.8 20.0469 103.14 20.527C102.479 21.0072 101.479 21.2473 100.139 21.2473Z" fill="var(--fill-0, #902B29)"/>
<path id="Vector_3" d="M73.6657 21.0069L79.1875 0H86.0897L91.6116 21.0069H87.5302L86.3898 16.3854H78.8874L77.747 21.0069H73.6657ZM79.8177 12.7242H85.4595L82.9087 2.49082H82.3685L79.8177 12.7242Z" fill="var(--fill-0, #902B29)"/>
<path id="Vector_4" d="M56.2235 21.427C54.743 21.427 53.4126 21.1269 52.2322 20.5267C51.0518 19.9265 50.1215 19.0563 49.4413 17.9159C48.7611 16.7755 48.421 15.4051 48.421 13.8045V13.3244C48.421 11.7238 48.7611 10.3534 49.4413 9.21302C50.1215 8.07264 51.0518 7.20236 52.2322 6.60216C53.4126 6.00196 54.743 5.70186 56.2235 5.70186C57.704 5.70186 59.0344 6.00196 60.2148 6.60216C61.3952 7.20236 62.3255 8.07264 63.0057 9.21302C63.686 10.3534 64.0261 11.7238 64.0261 13.3244V13.8045C64.0261 15.4051 63.686 16.7755 63.0057 17.9159C62.3255 19.0563 61.3952 19.9265 60.2148 20.5267C59.0344 21.1269 57.704 21.427 56.2235 21.427ZM56.2235 18.0659C57.3839 18.0659 58.3442 17.6958 59.1045 16.9556C59.8647 16.1953 60.2448 15.115 60.2448 13.7145V13.4144C60.2448 12.0139 59.8647 10.9436 59.1045 10.2033C58.3642 9.44309 57.4039 9.06297 56.2235 9.06297C55.0631 9.06297 54.1028 9.44309 53.3426 10.2033C52.5823 10.9436 52.2022 12.0139 52.2022 13.4144V13.7145C52.2022 15.115 52.5823 16.1953 53.3426 16.9556C54.1028 17.6958 55.0631 18.0659 56.2235 18.0659Z" fill="var(--fill-0, #902B29)"/>
<path id="Vector_5" d="M36.0408 21.0072L31.2993 6.1223H35.3206L38.7717 18.2463H39.3119L42.7631 6.1223H46.7844L42.0428 21.0072H36.0408Z" fill="var(--fill-0, #902B29)"/>
<path id="Vector_6" d="M20.7999 21.0071V6.12221H24.5211V7.80276H25.0613C25.2814 7.20256 25.6415 6.76242 26.1417 6.48233C26.6618 6.20223 27.262 6.06219 27.9423 6.06219H29.7428V9.42329H27.8822C26.9219 9.42329 26.1317 9.68338 25.5115 10.2036C24.8912 10.7037 24.5811 11.484 24.5811 12.5443V21.0071H20.7999Z" fill="var(--fill-0, #902B29)"/>
<path id="Vector_7" d="M0 21.0069L5.52181 3.26425e-05H12.4241L17.9459 21.0069H13.8646L12.7242 16.3854H5.22172L4.08134 21.0069H0ZM6.15202 12.7242H11.7939L9.24304 2.49085H8.70286L6.15202 12.7242Z" fill="var(--fill-0, #902B29)"/>
<path id="Vector_8" d="M125.735 21.0349V0.0789658H129.507V8.01227H130.046C130.206 7.69294 130.455 7.37361 130.795 7.05428C131.134 6.73495 131.583 6.4755 132.142 6.27592C132.721 6.05638 133.449 5.94662 134.327 5.94662C135.485 5.94662 136.493 6.21605 137.351 6.75491C138.229 7.27382 138.908 8.00229 139.386 8.94031C139.865 9.85838 140.105 10.9361 140.105 12.1735V21.0349H136.333V12.4729C136.333 11.3552 136.054 10.517 135.495 9.95817C134.956 9.39935 134.177 9.11993 133.16 9.11993C132.002 9.11993 131.104 9.50911 130.465 10.2875C129.827 11.0459 129.507 12.1136 129.507 13.4907V21.0349H125.735Z" fill="var(--fill-0, #902B29)"/>
</g>
</svg>
