<svg preserveAspectRatio="none" width="100%" height="100%" overflow="visible" style="display: block;" viewBox="0 0 41.9537 46.5466" fill="none" xmlns="http://www.w3.org/2000/svg">
<path id="Logo" fill-rule="evenodd" clip-rule="evenodd" d="M23.8176 0.766118C22.0597 -0.255373 19.8939 -0.255372 18.136 0.766118L2.84086 9.65378C1.08292 10.6753 0 12.5631 0 14.6061V32.3425C0 34.3857 1.08293 36.2734 2.84086 37.2949L18.136 46.1824C18.3781 46.3232 18.6281 46.4446 18.8836 46.5466V32.796L13.7738 29.7821C13.6537 29.7275 13.5322 29.6553 13.4124 29.5691L13.3787 29.5491L13.3793 29.5448C12.8547 29.1548 12.3659 28.4979 12.1561 27.8415C12.0012 27.3568 11.9473 26.8901 12.0842 26.5312C12.111 26.4608 12.1401 26.3979 12.171 26.3417C12.5102 25.7248 13.1813 25.7392 13.7999 26.1823L18.8836 29.127V23.9063C18.8836 22.6598 19.8876 21.6491 21.1263 21.6491C22.365 21.6491 23.369 22.6598 23.369 23.9063V37.6257L29.6467 33.9888C30.2654 33.5457 30.9363 33.5315 31.2754 34.1482C31.3065 34.2046 31.3356 34.2675 31.3621 34.3379C31.4991 34.6966 31.4453 35.1633 31.2904 35.648C31.0275 36.4703 30.3267 37.2937 29.6665 37.5916L23.369 41.3025V46.5466C23.5212 46.4755 23.6708 46.3974 23.8176 46.3118L39.1128 37.2949C40.8707 36.2734 41.9537 34.3857 41.9537 32.3425V14.6061C41.9537 12.5631 40.8707 10.6753 39.1128 9.65378L23.8176 0.766118ZM34.4906 34.1393C33.9111 35.1408 32.927 35.6516 32.2928 35.2799C31.6582 34.9082 31.6138 33.7948 32.1933 32.7931C32.7726 31.7911 33.7568 31.2804 34.3912 31.6523C35.0257 32.0241 35.0702 33.1373 34.4906 34.1393Z" fill="var(--fill-0, #902B29)"/>
</svg>
