<svg preserveAspectRatio="none" width="100%" height="100%" overflow="visible" style="display: block;" viewBox="0 0 16.5 11.25" fill="none" xmlns="http://www.w3.org/2000/svg">
<path id="Vector" d="M8.25 1.5C11.0925 1.5 13.6275 3.0975 14.865 5.625C13.6275 8.1525 11.1 9.75 8.25 9.75C5.4 9.75 2.8725 8.1525 1.635 5.625C2.8725 3.0975 5.4075 1.5 8.25 1.5ZM8.25 0C4.5 0 1.2975 2.3325 0 5.625C1.2975 8.9175 4.5 11.25 8.25 11.25C12 11.25 15.2025 8.9175 16.5 5.625C15.2025 2.3325 12 0 8.25 0ZM8.25 3.75C9.285 3.75 10.125 4.59 10.125 5.625C10.125 6.66 9.285 7.5 8.25 7.5C7.215 7.5 6.375 6.66 6.375 5.625C6.375 4.59 7.215 3.75 8.25 3.75ZM8.25 2.25C6.39 2.25 4.875 3.765 4.875 5.625C4.875 7.485 6.39 9 8.25 9C10.11 9 11.625 7.485 11.625 5.625C11.625 3.765 10.11 2.25 8.25 2.25Z" fill="var(--fill-0, white)"/>
</svg>
