<svg preserveAspectRatio="none" width="100%" height="100%" overflow="visible" style="display: block;" viewBox="0 0 20 23.6263" fill="none" xmlns="http://www.w3.org/2000/svg">
<path id="Vector" d="M5 2.14785H2V5.36962H0V0H5V2.14785ZM20 5.36962V0H15V2.14785H18V5.36962H20ZM5 21.4785H2V18.2567H0V23.6263H5V21.4785ZM18 18.2567V21.4785H15V23.6263H20V18.2567H18ZM15 5.36962H5V18.2567H15V5.36962ZM17 18.2567C17 19.438 16.1 20.4046 15 20.4046H5C3.9 20.4046 3 19.438 3 18.2567V5.36962C3 4.18831 3.9 3.22177 5 3.22177H15C16.1 3.22177 17 4.18831 17 5.36962V18.2567ZM13 7.51747H7V9.66532H13V7.51747ZM13 10.7392H7V12.8871H13V10.7392ZM13 13.961H7V16.1089H13V13.961Z" fill="var(--fill-0, #902B29)"/>
</svg>
