<svg preserveAspectRatio="none" width="100%" height="100%" overflow="visible" style="display: block;" viewBox="0 0 28.3333 30" fill="none" xmlns="http://www.w3.org/2000/svg">
<path id="Vector" d="M20.6692 8.37L11.3333 18.255L6.2475 12.885L4.25 15L11.3333 22.5L22.6667 10.5L20.6692 8.37ZM14.1667 0C6.34667 0 0 6.72 0 15C0 23.28 6.34667 30 14.1667 30C21.9867 30 28.3333 23.28 28.3333 15C28.3333 6.72 21.9867 0 14.1667 0ZM14.1667 27C7.905 27 2.83333 21.63 2.83333 15C2.83333 8.37 7.905 3 14.1667 3C20.4283 3 25.5 8.37 25.5 15C25.5 21.63 20.4283 27 14.1667 27Z" fill="var(--fill-0, #1EA664)"/>
</svg>
